<svg width="100" height="100" viewBox="0 0 24 24" fill="none" xmlns="http://www.w3.org/2000/svg">
<path d="M15.4211 17.5526C14.0722 18.2393 12.6026 18.5 11.5 18.5C9.40023 18.5 7.52184 17.597 6.33501 16.035C5.12321 14.4404 4.5 12.3214 4.5 10C4.5 6.41015 7.41015 3.5 11 3.5C14.5899 3.5 17.5 6.41015 17.5 10V10.0278C17.5 10.9327 17.8443 11.7933 18.4474 12.4474C19.0504 13.1014 19.9079 13.5 20.5 13.5C20.7652 13.5 21 13.7348 21 14C21 14.2652 20.7652 14.5 20.5 14.5C19.0673 14.5 18 15.6563 18 16.9722C18 18.2881 16.8437 19.5 15.5 19.5C15.2348 19.5 15 19.2652 15 19C15 18.7348 15.2348 18.5 15.5 18.5C15.8974 18.5 16.3289 18.1711 15.4211 17.5526Z" stroke="#cccccc" stroke-width="1.5" stroke-linecap="round" stroke-linejoin="round"/>
</svg>