<svg width="60" height="100" viewBox="0 0 60 100" fill="none" xmlns="http://www.w3.org/2000/svg">
  <path d="M29.8333 99C29.8333 99 15.6028 85.2778 11.5 70.3333C7.39722 55.3889 17.5 35.8333 17.5 35.8333C17.5 35.8333 2.5 35 1.5 19.5C0.5 4 15.3333 1 15.3333 1C15.3333 1 20.6111 2.30556 25 6.5C29.3889 10.6944 32.5 11.5 32.5 11.5C32.5 11.5 37.3333 10.1667 41.5 12.5C45.6667 14.8333 48.5 18.5 48.5 18.5C48.5 18.5 54.3333 22.8333 58.5 33.5C62.6667 44.1667 52.8333 60.6667 43.1667 71.3333C33.5 82 29.8333 99 29.8333 99Z" stroke="white" stroke-width="2"/>
  <circle cx="28" cy="82" r="8" fill="white"/>
  <circle cx="45" cy="50" r="10" fill="white"/>
  <circle cx="20" cy="45" r="5" fill="white"/>
  <circle cx="25" cy="18" r="4" fill="white"/>
  <circle cx="36" cy="15" r="3" fill="white"/>
  <circle cx="45" cy="20" r="2.5" fill="white"/>
</svg>